/* XPM */
static char * down_xpm[] = {
"20 20 72 1",
" 	c None",
".	c #000000",
"+	c #060606",
"@	c #080808",
"#	c #0A0A0A",
"$	c #050505",
"%	c #DBDCD9",
"&	c #E9EAE8",
"*	c #EEEEED",
"=	c #F3F3F3",
"-	c #F3F3F2",
";	c #F0F0F0",
">	c #B0C4A6",
",	c #A6BD9B",
"'	c #A3BA97",
")	c #9AB590",
"!	c #87A37B",
"~	c #738F65",
"{	c #010101",
"]	c #E4E4E2",
"^	c #F0EEEF",
"/	c #F1F0F1",
"(	c #F2F0F2",
"_	c #93B385",
":	c #8FAF81",
"<	c #8FAF80",
"[	c #86A877",
"}	c #739164",
"|	c #040404",
"1	c #DBDBDA",
"2	c #EBE9EA",
"3	c #F3EFF3",
"4	c #F5F1F5",
"5	c #8AAD7A",
"6	c #89AC79",
"7	c #86A478",
"8	c #6A885C",
"9	c #E0E0DF",
"0	c #F2EFF2",
"a	c #F4F0F4",
"b	c #F6F2F6",
"c	c #8BAE7B",
"d	c #86A876",
"e	c #769568",
"f	c #D4D5D1",
"g	c #EEEDED",
"h	c #8DAE7D",
"i	c #89A67B",
"j	c #E3E3E1",
"k	c #F1EFF1",
"l	c #F3F0F3",
"m	c #8EAE7E",
"n	c #8FAD81",
"o	c #729163",
"p	c #D4D5D2",
"q	c #ECEBEB",
"r	c #EEECEE",
"s	c #91AF82",
"t	c #7F9D71",
"u	c #678459",
"v	c #030303",
"w	c #E1E1E0",
"x	c #E9E8E8",
"y	c #90AB83",
"z	c #6E8B60",
"A	c #D2D4D0",
"B	c #7D9970",
"C	c #637F55",
"D	c #BBC0B8",
"E	c #678558",
"F	c #A3AC9E",
"G	c #5F7B52",
"                    ",
"                    ",
"                    ",
"   .+++@#$$$$@...   ",
"   .%&*=-;>,')!~.   ",
"    {]^/(/_:<[}.    ",
"    |1234455678.    ",
"     .90abc5de.     ",
"     .fg(45hi8.     ",
"      .jklmno.      ",
"      .pqrstu.      ",
"       vwxyz.       ",
"       .A%BC.       ",
"        .DE.        ",
"        .FG.        ",
"         ..         ",
"         ..         ",
"                    ",
"                    ",
"                    "};
