/* XPM */
static char * ebview_xpm[] = {
"48 48 234 2",
"  	c None",
". 	c #515151",
"+ 	c #04EAD9",
"@ 	c #05E8D7",
"# 	c #06E6D5",
"$ 	c #06E3D4",
"% 	c #07E1D2",
"& 	c #07DFD0",
"* 	c #08DDCE",
"= 	c #08DACC",
"- 	c #09D8CB",
"; 	c #09D6C9",
"> 	c #03EFDC",
", 	c #04ECDB",
"' 	c #06E3D3",
") 	c #08DCCE",
"! 	c #0AD3C7",
"~ 	c #0BD1C5",
"{ 	c #0BCFC3",
"] 	c #0CCCC2",
"^ 	c #03F1DE",
"/ 	c #04ECDA",
"( 	c #06E5D5",
"_ 	c #09D8CA",
": 	c #0AD5C9",
"< 	c #0CCAC0",
"[ 	c #0DC8BE",
"} 	c #0DC5BC",
"| 	c #02F3E0",
"1 	c #03EEDC",
"2 	c #05EAD9",
"3 	c #07E1D1",
"4 	c #07DED0",
"5 	c #0BCEC3",
"6 	c #0CCCC1",
"7 	c #0EC3BA",
"8 	c #0FC1B9",
"9 	c #0FBEB7",
"0 	c #05EAD8",
"a 	c #05E7D7",
"b 	c #09D7CA",
"c 	c #0AD5C8",
"d 	c #0DC7BE",
"e 	c #0FC1B8",
"f 	c #10BCB5",
"g 	c #10BAB3",
"h 	c #02F3DF",
"i 	c #03F0DE",
"j 	c #07E0D1",
"k 	c #07DECF",
"l 	c #0BD0C5",
"m 	c #0CCABF",
"n 	c #0EC5BC",
"o 	c #0FC0B8",
"p 	c #11B7B1",
"q 	c #11B5AF",
"r 	c #04EEDC",
"s 	c #05E9D8",
"t 	c #05E7D6",
"u 	c #09D9CC",
"v 	c #0AD3C6",
"w 	c #0CC9BF",
"x 	c #0FBEB6",
"y 	c #10B9B3",
"z 	c #12B3AE",
"A 	c #13B0AC",
"B 	c #02F2DF",
"C 	c #03F0DD",
"D 	c #EDF9F8",
"E 	c #12B2AD",
"F 	c #13AEAA",
"G 	c #14ABA8",
"H 	c #04EBDA",
"I 	c #12B5AF",
"J 	c #14A9A6",
"K 	c #15A7A4",
"L 	c #04EEDB",
"M 	c #06E4D4",
"N 	c #06E2D3",
"O 	c #08DECF",
"P 	c #0AD2C6",
"Q 	c #0BD0C4",
"R 	c #0CCBC1",
"S 	c #0DC9BF",
"T 	c #0DC7BD",
"U 	c #0EC4BB",
"V 	c #0EC2BA",
"W 	c #13B0AB",
"X 	c #13ADAA",
"Y 	c #15A4A3",
"Z 	c #04EDDB",
"` 	c #06E2D2",
" .	c #08DDCF",
"..	c #08DBCD",
"+.	c #0BCDC2",
"@.	c #0FBDB6",
"#.	c #10BBB4",
"$.	c #15A6A4",
"%.	c #15A4A2",
"&.	c #16A2A1",
"*.	c #17A09F",
"=.	c #04EBD9",
"-.	c #05E6D6",
";.	c #09D9CB",
">.	c #0DC6BD",
",.	c #0EC2B9",
"'.	c #11B9B2",
").	c #11B6B1",
"!.	c #13ADA9",
"~.	c #16A4A2",
"{.	c #179F9F",
"].	c #179D9D",
"^.	c #07E2D2",
"/.	c #0CCBC0",
"(.	c #0FBFB8",
"_.	c #11B6B0",
":.	c #12B4AF",
"<.	c #14A8A6",
"[.	c #16A2A0",
"}.	c #189B9B",
"|.	c #189899",
"1.	c #0AD4C7",
"2.	c #0DC8BF",
"3.	c #0FBFB7",
"4.	c #11B8B2",
"5.	c #13AFAB",
"6.	c #16A1A0",
"7.	c #199697",
"8.	c #0AD1C6",
"9.	c #0EC1B9",
"0.	c #10BDB6",
"a.	c #12B4AE",
"b.	c #12B1AD",
"c.	c #179F9E",
"d.	c #189A9B",
"e.	c #1A9496",
"f.	c #05E6D5",
"g.	c #08DACD",
"h.	c #0BCFC4",
"i.	c #10BDB5",
"j.	c #10BAB4",
"k.	c #14AAA7",
"l.	c #16A3A2",
"m.	c #1A9395",
"n.	c #1A9194",
"o.	c #1B8F92",
"p.	c #0CCDC2",
"q.	c #13ACA9",
"r.	c #15A8A5",
"s.	c #179C9C",
"t.	c #1B8C90",
"u.	c #14ACA9",
"v.	c #15A5A3",
"w.	c #199899",
"x.	c #199597",
"y.	c #1A9193",
"z.	c #1C8A8E",
"A.	c #11B5B0",
"B.	c #179E9E",
"C.	c #189A9A",
"D.	c #1B8E92",
"E.	c #1C888C",
"F.	c #15A7A5",
"G.	c #16A3A1",
"H.	c #199799",
"I.	c #1B8E91",
"J.	c #1D878C",
"K.	c #1D858A",
"L.	c #16A0A0",
"M.	c #189C9C",
"N.	c #199798",
"O.	c #1A9093",
"P.	c #1E8388",
"Q.	c #16A09F",
"R.	c #18999A",
"S.	c #1B8C8F",
"T.	c #1C898E",
"U.	c #1E8087",
"V.	c #14ACA8",
"W.	c #199596",
"X.	c #1A9295",
"Y.	c #1E8288",
"Z.	c #1E8086",
"`.	c #1F7E85",
" +	c #179E9D",
".+	c #189B9C",
"++	c #1C8B8F",
"@+	c #1C898D",
"#+	c #1F7B83",
"$+	c #199496",
"%+	c #1A9294",
"&+	c #1D848A",
"*+	c #1F7E84",
"=+	c #207981",
"-+	c #1D878B",
";+	c #1F7D84",
">+	c #207B83",
",+	c #10B9B2",
"'+	c #199698",
")+	c #1B9092",
"!+	c #1B8D91",
"~+	c #1D868B",
"{+	c #207B82",
"]+	c #21767F",
"^+	c #189999",
"/+	c #1D8489",
"(+	c #1E7F86",
"_+	c #21747D",
":+	c #1B8D90",
"<+	c #207880",
"[+	c #1E8187",
"}+	c #1F7F86",
"|+	c #22717B",
"1+	c #207A82",
"2+	c #21767E",
"3+	c #21737D",
"4+	c #236F79",
"5+	c #12B1AC",
"6+	c #21737C",
"7+	c #1D858B",
"8+	c #1E8389",
"9+	c #1F7F85",
"0+	c #1F7C83",
"a+	c #21757E",
"b+	c #22717A",
"c+	c #236E79",
"d+	c #207A81",
"e+	c #207780",
"f+	c #22737C",
"g+	c #22707A",
"h+	c #236E78",
"i+	c #20777F",
"j+	c #21777F",
"k+	c #22727C",
"                                . . . . . . . . . .                                             ",
"                          . . . + @ # $ % & * = - ; . . .                                       ",
"                      . . > , + @ # ' % & ) = - ; ! ~ { ] . .                                   ",
"                  . . ^ > / + @ ( ' % & ) = _ : ! ~ { ] < [ } . .                               ",
"                . | ^ 1 / 2 @ ( ' 3 4 ) = _ : ! ~ 5 6 < [ } 7 8 9 .                             ",
"              . | ^ 1 / 0 a ( ' 3 4 ) = b c ! ~ 5 6 < d } 7 e 9 f g .                           ",
"            . h i 1 / 0 a ( ' j k ) = b c ! l 5 6 m d n 7 o 9 f g p q .                         ",
"          . h i r / s t ( ' j k ) u b c v l 5 6 w d n 7 o x f y p q z A .                       ",
"        . B C r / D D D D D D D D D D D D D D D D D D D D D D p q E A F G .                     ",
"      . B C r H s D D D D D D D D D D D D D D D D D D D D D D I E A F G J K .                   ",
"      . C L H s t M N j O D D D D P Q 5 R S T U V D D D D D D E W X G J K Y .                   ",
"    . C Z H s t M ` j  ...D D D D Q +.R S T U V o @.#.D D D D W X G J $.%.&.*..                 ",
"    . Z =.s -.M ` j  ...;.D D D D +.R S >.U ,.o @.#.'.).D D D !.G J $.~.&.{.]..                 ",
"  . Z =.s -.M ^.&  ...;.; D D D D /.S >.U ,.(.@.#.'._.:.E D D G <.$.~.[.{.].}.|..               ",
"  . =.@ -.M ^.&  ...- ; 1.D D D D 2.>.U ,.3.@.#.4._.:.E 5.D D <.$.~.6.{.].}.|.7..               ",
"  . @ -.M % & * ..- ; 1.8.D D D D >.U 9.3.0.#.D D a.b.5.!.D D $.~.6.c.].d.|.7.e..               ",
". @ f.M % & * g.- ; 1.~ h.D D D D U 9.3.i.j.4.D D b.5.!.k.D D l.6.c.].d.|.7.m.n.o..             ",
". # $ % & * = - ; ! ~ h.p.D D D D 9.3.i.j.4.D D D 5.q.k.r.$.D 6.c.s.d.|.7.m.n.o.t..             ",
". ' % & ) = - ; ! ~ { ] < D D D D 3.f g 4._.D D D u.k.r.v.l.6.c.s.d.w.x.m.y.o.t.z..             ",
". % & ) = _ : ! ~ { ] < [ D D D D f g 4.A.D D D D k.r.v.l.6.B.s.C.w.x.m.y.D.t.z.E..             ",
". 4 ) = _ : ! ~ 5 6 < [ } D D D D D D D D D D D D F.v.G.6.B.s.C.H.x.m.y.I.t.z.J.K..             ",
". ) = b c ! ~ 5 6 < d } 7 D D D D D D D D D D D D v.G.L.B.M.C.N.x.m.O.I.t.z.J.K.P..             ",
". = b c ! l 5 6 m d n 7 o D D D D q z A F D D D D G.Q.B.M.R.N.x.m.O.I.S.T.J.K.P.U..             ",
". b c v l 5 6 w d n 7 o x D D D D z A F V.J D D D Q.B.M.R.N.W.X.O.I.S.T.J.K.Y.Z.`..             ",
". c P l 5 6 w T n V o x f D D D D A F G J F.v.D D  +.+R.N.W.X.O.I.++@+J.K.Y.Z.`.#+.             ",
". P Q 5 R S T n V o x #.y D D D D F G J K Y &.D D .+R.N.$+%+D D ++@+J.&+Y.Z.*+#+=+.             ",
"  . 5 R S T U V o x #.y p D D D D G J K Y &.*.D D R.N.$+%+O.D D @+-+&+Y.Z.;+>+=+.               ",
"  . R S T U V o @.#.,+p :.D D D D J $.%.&.*.].}.R.'+$+%+)+!+D D ~+&+Y.Z.;+{+=+]+.               ",
"  . S >.U ,.o @.#.'.).:.E D D D D $.~.&.{.].}.^+'+$+%+o.!+D D D /+Y.(+;+{+=+]+_+.               ",
"    . U ,.(.@.#.'._.:.E 5.D D D D ~.[.{.].}.|.'+$+%+o.:+++D D D Y.(+;+{+<+]+_+.                 ",
"    . ,.3.@.#.4._.:.E 5.!.D D D D 6.{.].}.|.7.e.n.o.:+++D D D [+}+;+{+<+]+_+|+.                 ",
"      . 0.#.4._.a.b.5.!.k.D D D D c.].d.|.7.e.n.o.:+D D D D D }+;+1+<+2+_+|+.                   ",
"      . j.4._.a.b.D D D D D D D D D D D D D D D D D D D D D D ;+1+<+2+3+|+4+.                   ",
"        . _.z 5+5.D D D D D D D D D D D D D D D D D D D D D D 1+<+2+6+|+4+.                     ",
"          . 5+5.u.k.r.v.l.6.c.s.d.w.x.m.y.o.t.z.E.7+8+[+9+0+1+<+a+6+|+4+.                       ",
"            . u.k.r.v.l.6.B.s.C.w.x.m.y.D.t.z.E.K.8+[+`.0+1+<+a+6+b+c+. . .                     ",
"              . F.v.G.6.B.s.C.H.x.m.y.I.t.z.J.K.8+[+`.0+d+e+a+f+b+c+. . . . .                   ",
"                . G.L.B.M.C.N.x.m.O.I.t.z.J.K.P.U.`.0+d+e+a+f+g+h+.   . . . . .                 ",
"                  . . M.R.N.x.m.O.I.S.T.J.K.P.U.`.0+=+i+a+f+g+. .       . . . . .               ",
"                      . . W.X.O.I.S.T.J.K.Y.Z.`.0+=+j+a+k+. .             . . . . .             ",
"                          . . . ++@+J.K.Y.Z.`.#+=+j+. . .                   . . . . .           ",
"                                . . . . . . . . . .                           . . . . .         ",
"                                                                                . . . . .       ",
"                                                                                  . . . . .     ",
"                                                                                    . . . . .   ",
"                                                                                      . . . . . ",
"                                                                                        . . . . ",
"                                                                                          . . . "};
