/* XPM */
static char * file_xpm[] = {
"16 16 55 1",
" 	c None",
".	c #000000",
"+	c #F6F6F6",
"@	c #F2F2F2",
"#	c #EEEEEE",
"$	c #E9E9E9",
"%	c #E5E5E5",
"&	c #E1E1E1",
"*	c #DDDDDD",
"=	c #D9D9D9",
"-	c #D5D5D5",
";	c #D1D1D1",
">	c #F1F1F1",
",	c #EDEDED",
"'	c #D4D4D4",
")	c #D0D0D0",
"!	c #CCCCCC",
"~	c #E0E0E0",
"{	c #DCDCDC",
"]	c #D8D8D8",
"^	c #C8C8C8",
"/	c #E8E8E8",
"(	c #E4E4E4",
"_	c #CBCBCB",
":	c #C7C7C7",
"<	c #C3C3C3",
"[	c #D3D3D3",
"}	c #CFCFCF",
"|	c #BFBFBF",
"1	c #DFDFDF",
"2	c #DBDBDB",
"3	c #D7D7D7",
"4	c #C2C2C2",
"5	c #BEBEBE",
"6	c #BABABA",
"7	c #CACACA",
"8	c #C6C6C6",
"9	c #B6B6B6",
"0	c #D6D6D6",
"a	c #D2D2D2",
"b	c #CECECE",
"c	c #B9B9B9",
"d	c #B5B5B5",
"e	c #B1B1B1",
"f	c #C1C1C1",
"g	c #BDBDBD",
"h	c #ADADAD",
"i	c #C9C9C9",
"j	c #C5C5C5",
"k	c #ACACAC",
"l	c #A8A8A8",
"m	c #B8B8B8",
"n	c #B4B4B4",
"o	c #B0B0B0",
"p	c #A4A4A4",
"                ",
"                ",
"  ............  ",
"  .+@#$%&*=-;.  ",
"  .>,$%&*=')!.  ",
"  .,$%~{]')!^.  ",
"  ./(~{]')_:<.  ",
"  .(~{][}_:<|.  ",
"  .123[}_:456.  ",
"  .23[}784569.  ",
"  .0ab7845cde.  ",
"  .ab78fgcdeh.  ",
"  .bijfgcdekl.  ",
"  .ijfgmnoklp.  ",
"  ............  ",
"                "};
