/* XPM */
static char * folder_open_xpm[] = {
"16 16 28 1",
" 	c None",
".	c #000000",
"+	c #8383F7",
"@	c #C2C2F1",
"#	c #C0C0F2",
"$	c #BEBEF2",
"%	c #BCBCF2",
"&	c #BABAF2",
"*	c #B8B8F2",
"=	c #B6B6F2",
"-	c #B4B4F2",
";	c #B2B2F3",
">	c #B0B0F3",
",	c #AEAEF3",
"'	c #ACACF3",
")	c #AAAAF3",
"!	c #A8A8F3",
"~	c #A6A6F4",
"{	c #A4A4F4",
"]	c #A2A2F4",
"^	c #A0A0F4",
"/	c #9E9EF4",
"(	c #9C9CF4",
"_	c #9A9AF5",
":	c #9898F5",
"<	c #9696F5",
"[	c #9494F5",
"}	c #9292F5",
"                ",
"                ",
"  ....          ",
" .++++.         ",
".++++++.......  ",
".++++++++++++.  ",
".+..............",
".+.@#$%&*=-;>,'.",
".+.%&*=-;>,')!~.",
"..*=-;>,')!~{]. ",
"..;>,')!~{]^/(. ",
".,')!~{]^/(_:.  ",
".!~{]^/(_:<[}.  ",
"..............  ",
"                ",
"                "};
