/* XPM */
static char * folder_closed_xpm[] = {
"16 16 54 1",
" 	c None",
".	c #000000",
"+	c #8383F7",
"@	c #D2D2F0",
"#	c #CFCFF0",
"$	c #CDCDF0",
"%	c #CACAF1",
"&	c #C8C8F1",
"*	c #C5C5F1",
"=	c #C3C3F1",
"-	c #C0C0F2",
";	c #BEBEF2",
">	c #BBBBF2",
",	c #B9B9F2",
"'	c #B6B6F2",
")	c #CDCDF1",
"!	c #C2C2F1",
"~	c #BDBDF2",
"{	c #B8B8F2",
"]	c #B3B3F3",
"^	c #B1B1F3",
"/	c #C7C7F1",
"(	c #B5B5F2",
"_	c #B0B0F3",
":	c #AEAEF3",
"<	c #ABABF3",
"[	c #BFBFF2",
"}	c #BABAF2",
"|	c #ADADF3",
"1	c #A8A8F3",
"2	c #A6A6F4",
"3	c #BCBCF2",
"4	c #B7B7F2",
"5	c #B2B2F3",
"6	c #A3A3F4",
"7	c #A0A0F4",
"8	c #B4B4F2",
"9	c #AFAFF3",
"0	c #AAAAF3",
"a	c #A5A5F4",
"b	c #9E9EF4",
"c	c #9B9BF5",
"d	c #ACACF3",
"e	c #A7A7F4",
"f	c #A2A2F4",
"g	c #9D9DF4",
"h	c #9898F5",
"i	c #9696F5",
"j	c #A4A4F4",
"k	c #9F9FF4",
"l	c #9A9AF5",
"m	c #9595F5",
"n	c #9393F5",
"o	c #9090F5",
"                ",
"                ",
"  ....          ",
" .++++.         ",
".++++++.......  ",
".@#$%&*=-;>,'.  ",
".)%&*!-~>{']^.  ",
"./*!-~>{(]_:<.  ",
".![~}{(]_|<12.  ",
".3}4(5_|<1267.  ",
".4859|01a67bc.  ",
".^9d0eaf7gchi.  ",
".d0ejfkglhmno.  ",
"..............  ",
"                ",
"                "};
