/* XPM */
static char * globe_xpm[] = {
"20 20 215 2",
"  	c None",
". 	c #6D7B73",
"+ 	c #626C67",
"@ 	c #658CB2",
"# 	c #74939E",
"$ 	c #88A086",
"% 	c #8C9F7C",
"& 	c #879B74",
"* 	c #819367",
"= 	c #6B7F59",
"- 	c #46553A",
"; 	c #4376AD",
"> 	c #7197B8",
", 	c #E1DFC3",
"' 	c #C6CEBE",
") 	c #839CAB",
"! 	c #8A969A",
"~ 	c #ADA690",
"{ 	c #919385",
"] 	c #AEA37F",
"^ 	c #A9A572",
"/ 	c #938853",
"( 	c #4379AF",
"_ 	c #B6C8C8",
": 	c #F9F9D1",
"< 	c #FCFCE8",
"[ 	c #FCFCE1",
"} 	c #EAECCA",
"| 	c #C3D1CA",
"1 	c #9AACA9",
"2 	c #B8B296",
"3 	c #F1E2A2",
"4 	c #AEAF90",
"5 	c #C4B774",
"6 	c #8A7E4F",
"7 	c #799FBC",
"8 	c #FBFBE8",
"9 	c #FCFCEC",
"0 	c #FCFCD8",
"a 	c #FCFCDC",
"b 	c #FBFACB",
"c 	c #FCFCDE",
"d 	c #D2D0A2",
"e 	c #F9F5B2",
"f 	c #D1C898",
"g 	c #B4A874",
"h 	c #969065",
"i 	c #59553F",
"j 	c #417AB2",
"k 	c #86A4B3",
"l 	c #D4D7A5",
"m 	c #F4F4C4",
"n 	c #FCFCEA",
"o 	c #FCFCE0",
"p 	c #FCFCD6",
"q 	c #B0B89D",
"r 	c #E1D69C",
"s 	c #DBD599",
"t 	c #959473",
"u 	c #8A845B",
"v 	c #747357",
"w 	c #477EB5",
"x 	c #6090BA",
"y 	c #94ADAA",
"z 	c #99B1A7",
"A 	c #B7CA9F",
"B 	c #C9D8A4",
"C 	c #D5D8A7",
"D 	c #F1E6AC",
"E 	c #F6E6A8",
"F 	c #CEBD94",
"G 	c #BEBB94",
"H 	c #E0D79A",
"I 	c #7A7D6C",
"J 	c #36444C",
"K 	c #68684D",
"L 	c #25261F",
"M 	c #325E8D",
"N 	c #477DB3",
"O 	c #5087BC",
"P 	c #548ABD",
"Q 	c #5889B4",
"R 	c #93AB99",
"S 	c #8EB28A",
"T 	c #90AF88",
"U 	c #B0B688",
"V 	c #CABA8D",
"W 	c #CEBA88",
"X 	c #BDB188",
"Y 	c #637678",
"Z 	c #23435E",
"` 	c #253D4F",
" .	c #5A5C4A",
"..	c #1C252A",
"+.	c #305A86",
"@.	c #4278AE",
"#.	c #4C80B6",
"$.	c #4F84B6",
"%.	c #5281AC",
"&.	c #A1AB9F",
"*.	c #C2BD92",
"=.	c #C8BA8D",
"-.	c #BFB386",
";.	c #B8AE86",
">.	c #C4B481",
",.	c #A49B7B",
"'.	c #2E4F69",
").	c #203E5A",
"!.	c #233D50",
"~.	c #3D4B4D",
"{.	c #13232E",
"].	c #000000",
"^.	c #27517A",
"/.	c #3E6FA4",
"(.	c #4778AB",
"_.	c #4A7AA9",
":.	c #4C7AA2",
"<.	c #9AA9AB",
"[.	c #E0CEA0",
"}.	c #D6C08C",
"|.	c #BDAF82",
"1.	c #B5A579",
"2.	c #606D72",
"3.	c #294E6D",
"4.	c #204360",
"5.	c #223C52",
"6.	c #233C4E",
"7.	c #243D4F",
"8.	c #111F28",
"9.	c #346597",
"0.	c #3F6EA0",
"a.	c #42709E",
"b.	c #446E97",
"c.	c #CFC8A4",
"d.	c #E1D7A3",
"e.	c #C9BD88",
"f.	c #A3A67C",
"g.	c #A29970",
"h.	c #32526B",
"i.	c #264662",
"j.	c #213D56",
"k.	c #223C4E",
"l.	c #213C51",
"m.	c #0C1319",
"n.	c #2B5584",
"o.	c #366292",
"p.	c #3A6692",
"q.	c #3D658C",
"r.	c #ACB09B",
"s.	c #E7D69C",
"t.	c #C0BA87",
"u.	c #949872",
"v.	c #64726F",
"w.	c #465863",
"x.	c #3E4C59",
"y.	c #203B4E",
"z.	c #203C4E",
"A.	c #213C4F",
"B.	c #1E3749",
"C.	c #010202",
"D.	c #1A3757",
"E.	c #295583",
"F.	c #2E5A85",
"G.	c #315B84",
"H.	c #7F9396",
"I.	c #EDD89C",
"J.	c #BEB280",
"K.	c #6B726A",
"L.	c #264560",
"M.	c #5E6156",
"N.	c #253F56",
"O.	c #213D51",
"P.	c #203B4D",
"Q.	c #213C4E",
"R.	c #121E28",
"S.	c #203D5F",
"T.	c #264A72",
"U.	c #274C70",
"V.	c #2F537B",
"W.	c #7C837E",
"X.	c #63646B",
"Y.	c #234265",
"Z.	c #1E3F63",
"`.	c #233F57",
" +	c #203E57",
".+	c #203E56",
"++	c #203C50",
"@+	c #192E3C",
"#+	c #1F334E",
"$+	c #233F64",
"%+	c #1E4272",
"&+	c #1E4270",
"*+	c #1F3F69",
"=+	c #1F3F60",
"-+	c #213F58",
";+	c #203F59",
">+	c #203F58",
",+	c #203E58",
"'+	c #183043",
")+	c #030506",
"!+	c #132439",
"~+	c #1E3A5C",
"{+	c #203D61",
"]+	c #1E3D60",
"^+	c #203D58",
"/+	c #1E3E5C",
"(+	c #1D3A51",
"_+	c #0F1F2C",
":+	c #020203",
"<+	c #0D1621",
"[+	c #102033",
"}+	c #112439",
"|+	c #0F1F2D",
"1+	c #091219",
"2+	c #010102",
"                                        ",
"                  . +                   ",
"            @ # $ % & * = -             ",
"        ; > , ' ) ! ~ { ] ^ /           ",
"      ( _ : < [ } | 1 2 3 4 5 6         ",
"      7 8 9 0 a b 0 c d e f g h i       ",
"    j k l m 0 n a o p q r s t u v       ",
"    w x y z A B C D E F G H I J K L     ",
"  M N O P Q R S T U V W X Y Z `  ...    ",
"  +.@.#.$.%.&.*.=.-.;.>.,.'.).!.~.{.].  ",
"  ^./.(._.:.<.[.}.|.1.2.3.4.5.6.7.8.].  ",
"    9.0.a.b.c.d.e.f.g.h.i.j.k.!.l.m.].  ",
"    n.o.p.q.r.s.t.u.v.w.x.y.z.A.B.C.].  ",
"    D.E.F.G.H.I.J.K.L.M.N.O.P.Q.R.].    ",
"      S.T.U.V.W.X.Y.Z.`. +.+++@+].].    ",
"        #+$+%+&+*+=+-+;+>+,+'+)+].].    ",
"          !+~+{+]+^+.+/+(+_+].].].      ",
"            :+<+[+}+|+1+2+].].].        ",
"                ].].].].].].            ",
"                                        "};
