/* XPM */
static char * item_xpm[] = {
"16 16 36 1",
" 	c None",
".	c #090908",
"+	c #9D9D8D",
"@	c #CFCFB9",
"#	c #C4C4AF",
"$	c #8D8D7F",
"%	c #9C9C8C",
"&	c #E2E2D0",
"*	c #EDEDE5",
"=	c #C0C0AC",
"-	c #B2B29F",
";	c #828274",
">	c #080807",
",	c #D5D5BF",
"'	c #FBFBFA",
")	c #C3C3AE",
"!	c #B5B5A2",
"~	c #A6A695",
"{	c #959586",
"]	c #080808",
"^	c #CACAB5",
"/	c #DDDDD0",
"(	c #B7B7A4",
"_	c #AAAA98",
":	c #9B9B8B",
"<	c #8C8C7D",
"[	c #929283",
"}	c #BABAA7",
"|	c #ADAD9B",
"1	c #9F9F8E",
"2	c #909081",
"3	c #727266",
"4	c #878779",
"5	c #A0A090",
"6	c #737367",
"7	c #000000",
"                ",
"                ",
"    ....        ",
"   .+@#$.       ",
"  .%&*=-;.      ",
"  >,')!~{.      ",
"  ]^/(_:<.      ",
"  .[}|123.      ",
"   .45[677      ",
"    .....77     ",
"        7777    ",
"          777   ",
"           777  ",
"            77  ",
"                ",
"                "};
