/* XPM */
static char * jump_xpm[] = {
"30 20 2 1",
" 	c None",
".	c #0000FE",
"                              ",
"                              ",
"                              ",
"                              ",
"                              ",
"   ..                         ",
"   .                          ",
"   .                          ",
"   .   .  .         .    ..   ",
"   .   .  .   .  .  .  ..  .  ",
"   .   .  .   .  .  .  .   .  ",
"   .   .  .   .  .  .  .   .  ",
"   .   .  .   .  .  .  .   .  ",
" ...   .. .  ..  .  .. .. .   ",
"                       .      ",
"                       .      ",
"                       .      ",
"                              ",
"                              ",
"                              "};
