/* XPM */
static char * list_xpm[] = {
"16 16 101 2",
"  	c None",
". 	c #121212",
"+ 	c #2D2E2D",
"@ 	c #5A5B5A",
"# 	c #E0E4E0",
"$ 	c #BCC0BC",
"% 	c #868986",
"& 	c #B6BBB3",
"* 	c #C5C9C5",
"= 	c #58574F",
"- 	c #4C4737",
"; 	c #3D3F37",
"> 	c #BCC1B8",
", 	c #242424",
"' 	c #4C493F",
") 	c #9F967B",
"! 	c #1C1A14",
"~ 	c #21221F",
"{ 	c #B3B6B3",
"] 	c #545148",
"^ 	c #AAA287",
"/ 	c #1D1B15",
"( 	c #83887D",
"_ 	c #C0C4C0",
": 	c #DBDFDB",
"< 	c #514E44",
"[ 	c #A79E83",
"} 	c #2C2A21",
"| 	c #3A3A36",
"1 	c #7D7F7D",
"2 	c #C8CDC5",
"3 	c #484948",
"4 	c #4E4B40",
"5 	c #A59C7F",
"6 	c #91876A",
"7 	c #3D392D",
"8 	c #38352A",
"9 	c #494435",
"0 	c #41443F",
"a 	c #4A4436",
"b 	c #4D493D",
"c 	c #A39A7C",
"d 	c #ACA07E",
"e 	c #534D3C",
"f 	c #68614C",
"g 	c #171511",
"h 	c #6A634D",
"i 	c #25221B",
"j 	c #797158",
"k 	c #BEB496",
"l 	c #A1977A",
"m 	c #B5AA87",
"n 	c #A99E7D",
"o 	c #A89D7B",
"p 	c #B4A884",
"q 	c #A39878",
"r 	c #373328",
"s 	c #363736",
"t 	c #1B1B1B",
"u 	c #90866A",
"v 	c #4B473A",
"w 	c #BFB697",
"x 	c #C2B99C",
"y 	c #BCB292",
"z 	c #BAAF8E",
"A 	c #9A9071",
"B 	c #2E2B22",
"C 	c #817960",
"D 	c #BFB597",
"E 	c #BDB394",
"F 	c #B7AC8A",
"G 	c #948A6D",
"H 	c #28261E",
"I 	c #343126",
"J 	c #A09576",
"K 	c #BDB393",
"L 	c #AEA380",
"M 	c #797159",
"N 	c #1F1D16",
"O 	c #12110D",
"P 	c #7C745B",
"Q 	c #B6AC8B",
"R 	c #C1B89A",
"S 	c #BEB596",
"T 	c #B9AE8D",
"U 	c #A69B79",
"V 	c #000000",
"W 	c #353127",
"X 	c #A69C7E",
"Y 	c #C0B799",
"Z 	c #B8AD8B",
"` 	c #887F63",
" .	c #3F3B2E",
"..	c #716A53",
"+.	c #B3A887",
"@.	c #6D654F",
"#.	c #191813",
"$.	c #978D70",
"%.	c #BEB495",
"&.	c #C1B89B",
"*.	c #4D4838",
"  . + + + + + + + + + + + + .   ",
"  @ # # # $ % & # # # # # # @   ",
"  @ # # * = - ; > # # # # # @   ",
"  . + + , ' ) ! ~ + + + + + .   ",
"  @ # # { ] ^ / ( _ : # # # @   ",
"  @ # # { < [ / } | 1 % 2 # @   ",
"  , @ @ 3 4 5 / 6 7 8 9 0 @ ,   ",
"  3 { , a b c / d e f 6 g h i   ",
"  @ # + j b k l m n o p p q r   ",
"  s % t u v w x y z p p p A B   ",
"  s % t 6 C k x D E F p p G H   ",
"  @ # $ I J K x x D F p L M N   ",
"  3 { { O P Q R R S T p U e     ",
"  V V V V W X y x Y Z p `  .    ",
"          / ..+.x Y Z p @./     ",
"            #.$.%.&.T p *.V     "};
