/* XPM */
static char * multi_xpm[] = {
"16 16 4 1",
" 	c None",
".	c #FDFFD4",
"+	c #000000",
"@	c #818181",
"                ",
"                ",
"  ............. ",
"  ............. ",
"  .+..@@@@@@@@. ",
"  .+..++++++++. ",
"  ............. ",
"  ............. ",
"  .+..@@@@@@@@. ",
"  .+..++++++++. ",
"  ............. ",
"  ............. ",
"  .+..@@@@@@@@. ",
"  .+..++++++++. ",
"  ............. ",
"                "};
