/* XPM */
static char * paste2_xpm[] = {
"20 20 5 1",
" 	c None",
".	c #2A2A2A",
"+	c #FFFFFF",
"@	c #E50404",
"#	c #000000",
"                    ",
"                    ",
"                    ",
"                    ",
"..............      ",
"...+....++++..  @## ",
"...+....+...+. @@  #",
"..+++...+...+.@@    ",
"..+.+...++++@@@     ",
".+++@+..+..@@@#     ",
".+..@@..+.@@@. #   #",
"++...@@.+@@@..  ### ",
".....@@@@@@...      ",
"      @@@@@   ####  ",
"      @@@@    ###   ",
"       @@     ####  ",
"        @     # ### ",
"                 ## ",
"                    ",
"                    "};
