/* XPM */
static char * paste_xpm[] = {
"20 20 4 1",
" 	c None",
".	c #2A2A2A",
"+	c #FFFFFF",
"@	c #000000",
"                    ",
"                    ",
"                    ",
"                    ",
"..............      ",
"...+....++++..  @@@ ",
"...+....+...+. @   @",
"..+++...+...+.@     ",
"..+.+...++++..@     ",
".+++++..+...+.@     ",
".+...+..+...+. @   @",
"++...++.++++..  @@@ ",
"..............      ",
"              @@@@  ",
"              @@@   ",
"              @@@@  ",
"              @ @@@ ",
"                 @@ ",
"                    ",
"                    "};
