/* XPM */
static char * popup_xpm[] = {
"20 20 4 1",
" 	c None",
".	c #96BC8C",
"+	c #3F4F3B",
"@	c #2E2E2E",
"                    ",
"                    ",
"                    ",
" ............       ",
" ............+      ",
" ............+      ",
" ............+      ",
" ............+      ",
" ............+      ",
" ............+      ",
" ............+..@   ",
" ............+..+   ",
"  ++++++++++++..+   ",
"         .......+   ",
"         .......+.  ",
"          +++++++.+ ",
"              ....+ ",
"               ++++ ",
"                    ",
"                    "};
