/* XPM */
static char * popup2_xpm[] = {
"20 20 5 1",
" 	c None",
".	c #96BC8C",
"+	c #3F4F3B",
"@	c #E50404",
"#	c #2E2E2E",
"                    ",
"                    ",
"                    ",
" ............       ",
" ............+  @   ",
" ............+ @@   ",
" ............+@@    ",
" ...........@@@     ",
" ...@......@@@      ",
" ...@@....@@@+      ",
" ....@@..@@@.+..#   ",
" ....@@@@@@..+..+   ",
"  ++++@@@@@+++..+   ",
"      @@@@......+   ",
"       @@.......+.  ",
"        @ +++++++.+ ",
"              ....+ ",
"               ++++ ",
"                    ",
"                    "};
