/* XPM */
static char * push_off[] = {
"10 10 28 1",
" 	c None",
".	c #F7944A",
"+	c #F79452",
"@	c #D68442",
"#	c #A56331",
"$	c #FF9452",
"%	c #FFD68C",
"&	c #FFC684",
"*	c #BD7339",
"=	c #945229",
"-	c #5A3118",
";	c #000000",
">	c #E7844A",
",	c #DE844A",
"'	c #C67339",
")	c #9C5A31",
"!	c #734221",
"~	c #312110",
"{	c #B56B39",
"]	c #AD6B39",
"^	c #945A31",
"/	c #422910",
"(	c #211008",
"_	c #844A29",
":	c #7B4A21",
"<	c #633921",
"[	c #392110",
"}	c #291810",
"          ",
"          ",
"     .+@# ",
"    $%&*=-",
";;;;>,')!~",
"    {]^!/(",
"    _:<[(}",
"     [((( ",
"          ",
"          "};
