/* XPM */
static char * small_right_xpm[] = {
"10 10 27 1",
" 	c None",
".	c #000000",
"+	c #B4B7B3",
"@	c #474B46",
"#	c #F9FBF9",
"$	c #EFF4EE",
"%	c #AAB0A9",
"&	c #434842",
"*	c #161616",
"=	c #F7F9F6",
"-	c #EFF3EE",
";	c #E9F0E8",
">	c #E2EAE1",
",	c #ACB3AA",
"'	c #3B4239",
")	c #90B386",
"!	c #85AA7D",
"~	c #84A87A",
"{	c #729969",
"]	c #445D3F",
"^	c #131E11",
"/	c #8CB082",
"(	c #739969",
"_	c #405C38",
":	c #192515",
"<	c #486541",
"[	c #121E10",
"          ",
"          ",
" .+@      ",
" .#$%&    ",
" *=-;>,'  ",
" .)!~{]^  ",
" ./(_:    ",
" .<[      ",
"          ",
"          "};
