/* XPM */
static char * small_left_xpm[] = {
"10 10 25 1",
" 	c None",
".	c #4C4E4B",
"+	c #A3ABA1",
"@	c #000000",
"#	c #494D48",
"$	c #B4B7B3",
"%	c #F4F8F4",
"&	c #DDE7DB",
"*	c #3B4239",
"=	c #B6BCB5",
"-	c #E8EFE7",
";	c #E9F0E8",
">	c #EFF3EE",
",	c #DAE5D8",
"'	c #121910",
")	c #121E10",
"!	c #46633F",
"~	c #709966",
"{	c #82A878",
"]	c #84AA7B",
"^	c #769E6C",
"/	c #42623A",
"(	c #749C69",
"_	c #172514",
":	c #406238",
"          ",
"          ",
"      .+@ ",
"    #$%&@ ",
"  *=-;>,' ",
"  )!~{]^@ ",
"    )/~(@ ",
"      _:@ ",
"          ",
"          "};
