/* XPM */
static char * small_close_xpm[] = {
"10 10 2 1",
" 	c None",
".	c #000000",
"          ",
"          ",
"  .  ..   ",
"   . ..   ",
"    ..    ",
"    ..    ",
"   . ..   ",
"  .   ..  ",
"          ",
"          "};
